<svg width="36" height="36" viewBox="0 0 36 36" fill="none" xmlns="http://www.w3.org/2000/svg">
<rect width="36" height="36" rx="7.2" fill="#C4DEA9"/>
<path d="M24.244 10.3346C22.9595 9.21063 21.2576 8.64331 19.1382 8.64331H12.1912V27.5361H12.8548C14.4069 27.5361 15.6593 26.273 15.6593 24.7316V20.8353V17.9559V11.5227H18.8598C20.0694 11.5227 21.0221 11.7903 21.6964 12.3148C22.3815 12.85 22.7133 13.6314 22.7133 14.6912C22.7133 15.7402 22.3601 16.5537 21.6536 17.1103C20.9472 17.6669 19.9945 17.9559 18.7849 17.9559C17.5968 17.9559 16.6334 18.9193 16.6334 20.1075V20.8353H19.0739C20.3905 20.8353 21.5894 20.5677 22.6812 20.0218C23.7731 19.4866 24.6187 18.7373 25.2502 17.7954C25.8711 16.8534 26.1815 15.7937 26.1815 14.6376C26.1708 12.8929 25.5285 11.4585 24.244 10.3346Z" fill="#224722"/>
</svg>
