<svg width="106" height="29" viewBox="0 0 106 29" fill="none" xmlns="http://www.w3.org/2000/svg">
<g clip-path="url(#clip0_1_471)">
<path d="M23.5997 0H28.6259V28.1848H23.5997V0Z" fill="#E0FFC0"/>
<path d="M32.2352 13.6535C32.3802 12.7753 32.6702 11.9289 33.1213 11.1145C33.5562 10.3001 34.1362 9.54958 34.845 8.86292C35.5538 8.17626 36.4559 7.61736 37.5513 7.21814C38.6468 6.80295 39.855 6.61133 41.176 6.61133C42.8191 6.61133 44.2529 6.83489 45.445 7.29798C46.6371 7.74511 47.5714 8.39983 48.248 9.2302C48.9246 10.0606 49.4079 10.9868 49.714 11.9928C50.02 13.0148 50.165 14.1486 50.165 15.4101V23.2188C50.165 25.2309 50.2778 26.8916 50.5194 28.2011H45.4933C45.3805 27.5144 45.3322 26.7479 45.3322 25.8856V24.8796H45.3C44.0918 27.4825 41.8687 28.7759 38.6307 28.7759C36.3593 28.7759 34.555 28.1691 33.234 26.9715C31.9131 25.7578 31.2526 24.2727 31.2526 22.4843C31.2526 21.7497 31.3653 21.063 31.607 20.4403C31.8486 19.8175 32.1386 19.3065 32.5091 18.8753C32.8635 18.4601 33.3307 18.0769 33.8945 17.7415C34.4583 17.4062 34.9899 17.1347 35.5055 16.9431C36.0048 16.7515 36.6009 16.5598 37.2936 16.4002C37.9863 16.2405 38.5501 16.1127 39.0012 16.0489C39.4523 15.969 39.9839 15.9051 40.5799 15.8253C40.9182 15.7933 41.1599 15.7454 41.3048 15.7295C42.7547 15.5219 43.7857 15.2344 44.3817 14.8672C44.9778 14.4999 45.2839 13.909 45.2839 13.0627C45.2839 12.2323 44.9295 11.5776 44.2206 11.0985C43.5118 10.6195 42.5292 10.3799 41.2726 10.3799C40.1772 10.3799 39.2589 10.6674 38.4857 11.2582C37.7124 11.8491 37.2131 12.6475 36.9392 13.6695H32.2352V13.6535ZM37.213 20.3285C36.5203 20.8075 36.182 21.4623 36.182 22.2767C36.182 23.0911 36.5203 23.7617 37.1808 24.2727C37.8413 24.7837 38.7757 25.0392 39.9517 25.0392C40.6766 25.0392 41.3532 24.9275 41.9814 24.6879C42.5936 24.4644 43.1735 24.0971 43.689 23.6021C44.2045 23.107 44.6073 22.4204 44.9134 21.5581C45.2033 20.6798 45.3483 19.6578 45.3483 18.4761V16.5439C45.0744 17.1507 44.5589 17.6777 43.834 18.1088C43.1091 18.54 41.9653 18.9073 40.4349 19.2107C38.9851 19.4662 37.9058 19.8494 37.213 20.3285Z" fill="#E0FFC0"/>
<path d="M53.2736 28.1852V7.2342H58.1869V10.891C59.5079 8.08054 61.6182 6.67529 64.5179 6.67529C67.1277 6.67529 69.0447 7.44179 70.269 8.97479C71.4933 10.5078 72.1216 12.5837 72.1216 15.2186V28.1692H67.176V16.3364C67.176 12.7434 65.855 10.9549 63.2292 10.9549C61.731 10.9549 60.555 11.6096 59.6529 12.9031C58.7669 14.1966 58.3158 16.1128 58.3158 18.6039V28.1532H53.2736V28.1852Z" fill="#E0FFC0"/>
<path d="M81.2239 20.6475C81.2239 21.893 81.4172 22.8192 81.82 23.41C82.2066 24.0009 82.9315 24.2883 83.9625 24.2883H85.3157V28.2645H82.8993C81.675 28.2805 80.6279 28.1208 79.758 27.7855C78.8881 27.4501 78.2115 26.9711 77.7121 26.3164C77.2127 25.6776 76.8583 24.943 76.6489 24.1127C76.4233 23.2983 76.3267 22.3561 76.3267 21.2862V11.0502H73.8458V7.23372H76.3267V1.38916H81.24V7.23372H85.4124V11.0502H81.24V20.6475H81.2239Z" fill="#E0FFC0"/>
<path d="M87.6995 13.6535C87.8445 12.7753 88.1344 11.9289 88.5855 11.1145C89.0205 10.3001 89.6004 9.54958 90.3092 8.86292C91.018 8.17626 91.9201 7.61736 93.0156 7.21814C94.111 6.80295 95.3192 6.61133 96.6402 6.61133C98.2834 6.61133 99.7171 6.83489 100.909 7.29798C102.101 7.74511 103.036 8.39983 103.712 9.2302C104.389 10.0606 104.872 10.9868 105.178 11.9928C105.484 13.0148 105.629 14.1486 105.629 15.4101V23.2188C105.629 25.2309 105.742 26.8916 105.984 28.2011H100.958C100.845 27.5144 100.796 26.7479 100.796 25.8856V24.8796H100.764C99.556 27.4825 97.3329 28.7759 94.0949 28.7759C91.8235 28.7759 90.0192 28.1691 88.6983 26.9715C87.3773 25.7578 86.7168 24.2727 86.7168 22.4843C86.7168 21.7497 86.8296 21.063 87.0712 20.4403C87.3128 19.8175 87.6028 19.3065 87.9733 18.8753C88.3277 18.4601 88.7949 18.0769 89.3587 17.7415C89.9226 17.4062 90.4542 17.1347 90.9697 16.9431C91.4691 16.7515 92.0651 16.5598 92.7578 16.4002C93.4505 16.2405 94.0144 16.1127 94.4654 16.0489C94.9165 15.969 95.4481 15.9051 96.0442 15.8253C96.3825 15.7933 96.6241 15.7454 96.7691 15.7295C98.2189 15.5219 99.2499 15.2344 99.846 14.8672C100.442 14.4999 100.748 13.909 100.748 13.0627C100.748 12.2323 100.394 11.5776 99.6849 11.0985C98.9761 10.6195 97.9934 10.3799 96.7369 10.3799C95.6414 10.3799 94.7232 10.6674 93.9499 11.2582C93.1767 11.8491 92.6773 12.6475 92.4034 13.6695H87.6995V13.6535ZM92.6773 20.3285C91.9846 20.8075 91.6463 21.4623 91.6463 22.2767C91.6463 23.0911 91.9846 23.7617 92.6451 24.2727C93.3056 24.7837 94.2399 25.0392 95.4159 25.0392C96.1408 25.0392 96.8174 24.9275 97.4457 24.6879C98.0578 24.4644 98.6378 24.0971 99.1533 23.6021C99.6688 23.107 100.072 22.4204 100.378 21.5581C100.668 20.6798 100.813 19.6578 100.813 18.4761V16.5439C100.539 17.1507 100.023 17.6777 99.2983 18.1088C98.5733 18.54 97.4296 18.9073 95.8992 19.2107C94.4332 19.4662 93.3539 19.8494 92.6773 20.3285Z" fill="#E0FFC0"/>
<path d="M18.1392 2.52306C16.2061 0.846343 13.6447 0 10.455 0H0V28.1848H0.998784C3.33465 28.1848 5.21945 26.3005 5.21945 24.001V18.1884V13.8928V4.29559H10.0362C11.8565 4.29559 13.2903 4.69481 14.3052 5.47728C15.3362 6.27571 15.8356 7.44143 15.8356 9.02234C15.8356 10.5873 15.304 11.8009 14.2407 12.6313C13.1775 13.4616 11.7438 13.8928 9.9234 13.8928C8.13526 13.8928 6.68541 15.33 6.68541 17.1025V18.1884H10.3584C12.3398 18.1884 14.1441 17.7892 15.7872 16.9748C17.4304 16.1763 18.703 15.0585 19.6535 13.6533C20.5878 12.248 21.055 10.6671 21.055 8.94249C21.0389 6.33959 20.0723 4.19978 18.1392 2.52306Z" fill="#E0FFC0"/>
</g>
<defs>
<clipPath id="clip0_1_471">
<rect width="106" height="28.7597" fill="white"/>
</clipPath>
</defs>
</svg>
